<mxfile host="Electron" modified="2024-03-23T04:12:54.590Z" agent="Mozilla/5.0 (Windows NT 10.0; Win64; x64) AppleWebKit/537.36 (KHTML, like Gecko) draw.io/24.0.4 Chrome/120.0.6099.109 Electron/28.1.0 Safari/537.36" etag="wzwskdpGQhSn3BUVMlEV" version="24.0.4" type="device">
  <diagram id="R2lEEEUBdFMjLlhIrx00" name="Page-1">
    <mxGraphModel dx="683" dy="407" grid="1" gridSize="10" guides="1" tooltips="1" connect="1" arrows="1" fold="1" page="1" pageScale="1" pageWidth="850" pageHeight="1100" math="0" shadow="0" extFonts="Permanent Marker^https://fonts.googleapis.com/css?family=Permanent+Marker">
      <root>
        <mxCell id="0" />
        <mxCell id="1" parent="0" />
        <mxCell id="atfucw1shv0gv79Qo8Jm-1" value="UI" style="shape=module;align=left;spacingLeft=20;align=center;verticalAlign=top;whiteSpace=wrap;html=1;" vertex="1" parent="1">
          <mxGeometry x="190" y="370" width="100" height="50" as="geometry" />
        </mxCell>
        <mxCell id="atfucw1shv0gv79Qo8Jm-3" value="" style="rounded=0;orthogonalLoop=1;jettySize=auto;html=1;endArrow=oval;endFill=0;sketch=0;sourcePerimeterSpacing=0;targetPerimeterSpacing=0;endSize=10;exitX=0.5;exitY=1;exitDx=0;exitDy=0;" edge="1" parent="1" source="atfucw1shv0gv79Qo8Jm-1">
          <mxGeometry relative="1" as="geometry">
            <mxPoint x="400" y="435" as="sourcePoint" />
            <mxPoint x="240" y="440" as="targetPoint" />
          </mxGeometry>
        </mxCell>
        <mxCell id="atfucw1shv0gv79Qo8Jm-5" value="UI&lt;div&gt;validator&lt;/div&gt;" style="shape=module;align=left;spacingLeft=20;align=center;verticalAlign=top;whiteSpace=wrap;html=1;" vertex="1" parent="1">
          <mxGeometry x="190" y="260" width="100" height="50" as="geometry" />
        </mxCell>
        <mxCell id="atfucw1shv0gv79Qo8Jm-7" value="Command&lt;div&gt;handler&lt;/div&gt;" style="shape=module;align=left;spacingLeft=20;align=center;verticalAlign=top;whiteSpace=wrap;html=1;" vertex="1" parent="1">
          <mxGeometry x="190" y="475" width="100" height="50" as="geometry" />
        </mxCell>
        <mxCell id="atfucw1shv0gv79Qo8Jm-11" value="" style="ellipse;whiteSpace=wrap;html=1;align=center;aspect=fixed;fillColor=none;strokeColor=none;resizable=0;perimeter=centerPerimeter;rotatable=0;allowArrows=0;points=[];outlineConnect=1;" vertex="1" parent="1">
          <mxGeometry x="325" y="350" width="10" height="10" as="geometry" />
        </mxCell>
        <mxCell id="atfucw1shv0gv79Qo8Jm-12" value="Server&lt;div&gt;validaton&lt;/div&gt;" style="shape=module;align=left;spacingLeft=20;align=center;verticalAlign=top;whiteSpace=wrap;html=1;" vertex="1" parent="1">
          <mxGeometry x="350" y="440" width="100" height="50" as="geometry" />
        </mxCell>
        <mxCell id="atfucw1shv0gv79Qo8Jm-13" value="JWT&lt;div&gt;handler&lt;/div&gt;" style="shape=module;align=left;spacingLeft=20;align=center;verticalAlign=top;whiteSpace=wrap;html=1;" vertex="1" parent="1">
          <mxGeometry x="350" y="500" width="100" height="50" as="geometry" />
        </mxCell>
        <mxCell id="atfucw1shv0gv79Qo8Jm-14" value="Mail service&lt;div&gt;connector&lt;/div&gt;" style="shape=module;align=left;spacingLeft=20;align=center;verticalAlign=top;whiteSpace=wrap;html=1;" vertex="1" parent="1">
          <mxGeometry x="140" y="580" width="100" height="50" as="geometry" />
        </mxCell>
        <mxCell id="atfucw1shv0gv79Qo8Jm-15" value="DB&lt;div&gt;connector&lt;/div&gt;" style="shape=module;align=left;spacingLeft=20;align=center;verticalAlign=top;whiteSpace=wrap;html=1;" vertex="1" parent="1">
          <mxGeometry x="250" y="580" width="100" height="50" as="geometry" />
        </mxCell>
        <mxCell id="atfucw1shv0gv79Qo8Jm-16" value="DB" style="shape=module;align=left;spacingLeft=20;align=center;verticalAlign=top;whiteSpace=wrap;html=1;" vertex="1" parent="1">
          <mxGeometry x="400" y="580" width="100" height="50" as="geometry" />
        </mxCell>
        <mxCell id="atfucw1shv0gv79Qo8Jm-17" value="" style="rounded=0;orthogonalLoop=1;jettySize=auto;html=1;endArrow=oval;endFill=0;sketch=0;sourcePerimeterSpacing=0;targetPerimeterSpacing=0;endSize=10;exitX=0.5;exitY=0;exitDx=0;exitDy=0;" edge="1" parent="1" source="atfucw1shv0gv79Qo8Jm-1">
          <mxGeometry relative="1" as="geometry">
            <mxPoint x="220" y="360" as="sourcePoint" />
            <mxPoint x="240" y="340" as="targetPoint" />
          </mxGeometry>
        </mxCell>
        <mxCell id="atfucw1shv0gv79Qo8Jm-18" value="" style="rounded=0;orthogonalLoop=1;jettySize=auto;html=1;endArrow=halfCircle;endFill=0;endSize=6;strokeWidth=1;sketch=0;exitX=0.5;exitY=1;exitDx=0;exitDy=0;" edge="1" parent="1" source="atfucw1shv0gv79Qo8Jm-5">
          <mxGeometry relative="1" as="geometry">
            <mxPoint x="271" y="323" as="sourcePoint" />
            <mxPoint x="240" y="340" as="targetPoint" />
          </mxGeometry>
        </mxCell>
        <mxCell id="atfucw1shv0gv79Qo8Jm-19" value="" style="rounded=0;orthogonalLoop=1;jettySize=auto;html=1;endArrow=oval;endFill=0;sketch=0;sourcePerimeterSpacing=0;targetPerimeterSpacing=0;endSize=10;exitX=1;exitY=0.25;exitDx=0;exitDy=0;" edge="1" parent="1" source="atfucw1shv0gv79Qo8Jm-7">
          <mxGeometry relative="1" as="geometry">
            <mxPoint x="205" y="320" as="sourcePoint" />
            <mxPoint x="330" y="480" as="targetPoint" />
          </mxGeometry>
        </mxCell>
        <mxCell id="atfucw1shv0gv79Qo8Jm-20" value="" style="rounded=0;orthogonalLoop=1;jettySize=auto;html=1;endArrow=halfCircle;endFill=0;endSize=6;strokeWidth=1;sketch=0;exitX=0.094;exitY=0.489;exitDx=0;exitDy=0;exitPerimeter=0;" edge="1" parent="1" source="atfucw1shv0gv79Qo8Jm-12">
          <mxGeometry relative="1" as="geometry">
            <mxPoint x="350" y="420" as="sourcePoint" />
            <mxPoint x="330" y="480" as="targetPoint" />
          </mxGeometry>
        </mxCell>
        <mxCell id="atfucw1shv0gv79Qo8Jm-24" value="" style="rounded=0;orthogonalLoop=1;jettySize=auto;html=1;endArrow=oval;endFill=0;sketch=0;sourcePerimeterSpacing=0;targetPerimeterSpacing=0;endSize=10;exitX=0.25;exitY=1;exitDx=0;exitDy=0;" edge="1" parent="1" source="atfucw1shv0gv79Qo8Jm-7">
          <mxGeometry relative="1" as="geometry">
            <mxPoint x="375" y="585" as="sourcePoint" />
            <mxPoint x="215" y="550" as="targetPoint" />
          </mxGeometry>
        </mxCell>
        <mxCell id="atfucw1shv0gv79Qo8Jm-25" value="" style="rounded=0;orthogonalLoop=1;jettySize=auto;html=1;endArrow=halfCircle;endFill=0;endSize=6;strokeWidth=1;sketch=0;exitX=0.75;exitY=0;exitDx=0;exitDy=0;" edge="1" parent="1" source="atfucw1shv0gv79Qo8Jm-14">
          <mxGeometry relative="1" as="geometry">
            <mxPoint x="360" y="650" as="sourcePoint" />
            <mxPoint x="215" y="550" as="targetPoint" />
          </mxGeometry>
        </mxCell>
        <mxCell id="atfucw1shv0gv79Qo8Jm-26" value="" style="rounded=0;orthogonalLoop=1;jettySize=auto;html=1;endArrow=oval;endFill=0;sketch=0;sourcePerimeterSpacing=0;targetPerimeterSpacing=0;endSize=10;exitX=1;exitY=0.5;exitDx=0;exitDy=0;" edge="1" parent="1" source="atfucw1shv0gv79Qo8Jm-15">
          <mxGeometry relative="1" as="geometry">
            <mxPoint x="375" y="585" as="sourcePoint" />
            <mxPoint x="380" y="605" as="targetPoint" />
          </mxGeometry>
        </mxCell>
        <mxCell id="atfucw1shv0gv79Qo8Jm-27" value="" style="rounded=0;orthogonalLoop=1;jettySize=auto;html=1;endArrow=halfCircle;endFill=0;endSize=6;strokeWidth=1;sketch=0;exitX=0.096;exitY=0.495;exitDx=0;exitDy=0;exitPerimeter=0;" edge="1" parent="1" source="atfucw1shv0gv79Qo8Jm-16">
          <mxGeometry relative="1" as="geometry">
            <mxPoint x="360" y="650" as="sourcePoint" />
            <mxPoint x="380" y="605" as="targetPoint" />
          </mxGeometry>
        </mxCell>
        <mxCell id="atfucw1shv0gv79Qo8Jm-30" value="" style="rounded=0;orthogonalLoop=1;jettySize=auto;html=1;endArrow=halfCircle;endFill=0;endSize=6;strokeWidth=1;sketch=0;exitX=0.5;exitY=0;exitDx=0;exitDy=0;" edge="1" parent="1" source="atfucw1shv0gv79Qo8Jm-7">
          <mxGeometry relative="1" as="geometry">
            <mxPoint x="315" y="525" as="sourcePoint" />
            <mxPoint x="240" y="440" as="targetPoint" />
          </mxGeometry>
        </mxCell>
        <mxCell id="atfucw1shv0gv79Qo8Jm-4" value="" style="ellipse;whiteSpace=wrap;html=1;align=center;aspect=fixed;fillColor=none;strokeColor=none;resizable=0;perimeter=centerPerimeter;rotatable=0;allowArrows=0;points=[];outlineConnect=1;" vertex="1" parent="1">
          <mxGeometry x="300" y="490" width="10" height="10" as="geometry" />
        </mxCell>
        <mxCell id="atfucw1shv0gv79Qo8Jm-31" value="" style="rounded=0;orthogonalLoop=1;jettySize=auto;html=1;endArrow=halfCircle;endFill=0;endSize=6;strokeWidth=1;sketch=0;exitX=0.25;exitY=0;exitDx=0;exitDy=0;" edge="1" parent="1" source="atfucw1shv0gv79Qo8Jm-15">
          <mxGeometry relative="1" as="geometry">
            <mxPoint x="307" y="558" as="sourcePoint" />
            <mxPoint x="270" y="550" as="targetPoint" />
          </mxGeometry>
        </mxCell>
        <mxCell id="atfucw1shv0gv79Qo8Jm-32" value="" style="rounded=0;orthogonalLoop=1;jettySize=auto;html=1;endArrow=oval;endFill=0;sketch=0;sourcePerimeterSpacing=0;targetPerimeterSpacing=0;endSize=10;exitX=0.75;exitY=1;exitDx=0;exitDy=0;" edge="1" parent="1" source="atfucw1shv0gv79Qo8Jm-7">
          <mxGeometry relative="1" as="geometry">
            <mxPoint x="267" y="558" as="sourcePoint" />
            <mxPoint x="270" y="550" as="targetPoint" />
          </mxGeometry>
        </mxCell>
        <mxCell id="atfucw1shv0gv79Qo8Jm-33" value="" style="ellipse;whiteSpace=wrap;html=1;align=center;aspect=fixed;fillColor=none;strokeColor=none;resizable=0;perimeter=centerPerimeter;rotatable=0;allowArrows=0;points=[];outlineConnect=1;" vertex="1" parent="1">
          <mxGeometry x="282" y="553" width="10" height="10" as="geometry" />
        </mxCell>
        <mxCell id="atfucw1shv0gv79Qo8Jm-35" value="" style="rounded=0;orthogonalLoop=1;jettySize=auto;html=1;endArrow=halfCircle;endFill=0;endSize=6;strokeWidth=1;sketch=0;exitX=0.094;exitY=0.517;exitDx=0;exitDy=0;exitPerimeter=0;" edge="1" target="atfucw1shv0gv79Qo8Jm-37" parent="1" source="atfucw1shv0gv79Qo8Jm-13">
          <mxGeometry relative="1" as="geometry">
            <mxPoint x="350" y="515" as="sourcePoint" />
          </mxGeometry>
        </mxCell>
        <mxCell id="atfucw1shv0gv79Qo8Jm-36" value="" style="rounded=0;orthogonalLoop=1;jettySize=auto;html=1;endArrow=oval;endFill=0;sketch=0;sourcePerimeterSpacing=0;targetPerimeterSpacing=0;endSize=10;exitX=1;exitY=0.75;exitDx=0;exitDy=0;" edge="1" target="atfucw1shv0gv79Qo8Jm-37" parent="1" source="atfucw1shv0gv79Qo8Jm-7">
          <mxGeometry relative="1" as="geometry">
            <mxPoint x="310" y="515" as="sourcePoint" />
          </mxGeometry>
        </mxCell>
        <mxCell id="atfucw1shv0gv79Qo8Jm-37" value="" style="ellipse;whiteSpace=wrap;html=1;align=center;aspect=fixed;fillColor=none;strokeColor=none;resizable=0;perimeter=centerPerimeter;rotatable=0;allowArrows=0;points=[];outlineConnect=1;" vertex="1" parent="1">
          <mxGeometry x="325" y="510" width="10" height="10" as="geometry" />
        </mxCell>
      </root>
    </mxGraphModel>
  </diagram>
</mxfile>
